<svg id="Layer_1" data-name="Layer 1" xmlns="http://www.w3.org/2000/svg" viewBox="0 0 472.12 427.32"><defs><style>.cls-1{fill:#3c3c3b;}.cls-1,.cls-2,.cls-3,.cls-4,.cls-5{stroke:#1d1d1b;stroke-miterlimit:10;}.cls-2{fill:#cbbba0;}.cls-3{fill:#c6c6c6;}.cls-4,.cls-5{fill:#009fe3;}.cls-4{stroke-width:5px;}.cls-5{stroke-width:3px;}.cls-6{font-size:100px;fill:#e6332a;font-family:ComicSansMS, Comic Sans MS;}</style></defs><path class="cls-1" d="M29,123.25s-8.09,334.81-2,338.46,452.63,9.31,459.92,0,14.17-333.2,3.24-338.46C487,121.73,448.53,120.17,395,119c-61.64-1.35-143.22-2.21-213.76-1.94h-1.62C100.19,117.38,35.12,119.14,29,123.25Z" transform="translate(-24.25 -39.97)"/><circle class="cls-2" cx="137.48" cy="310.71" r="93.02"/><rect class="cls-3" x="281.3" y="217.69" width="163.97" height="26.32"/><rect class="cls-3" x="281.3" y="279.64" width="163.97" height="26.32"/><rect class="cls-3" x="281.3" y="345.63" width="163.97" height="26.32"/><line class="cls-4" x1="306" y1="8.79" x2="95.88" y2="77.03"/><ellipse class="cls-5" cx="310.86" cy="7.98" rx="8.5" ry="6.48"/><text class="cls-6" transform="translate(165.11 161.53)">HK</text></svg>